<?xml version="1.0" encoding="utf-8"?>
<!-- Generator: Adobe Illustrator 16.0.0, SVG Export Plug-In . SVG Version: 6.00 Build 0)  -->
<!DOCTYPE svg PUBLIC "-//W3C//DTD SVG 1.1//EN" "http://www.w3.org/Graphics/SVG/1.1/DTD/svg11.dtd">
<svg version="1.1" id="Layer_1" xmlns="http://www.w3.org/2000/svg" xmlns:xlink="http://www.w3.org/1999/xlink" x="0px" y="0px"
	 width="960px" height="560px" viewBox="0 0 960 560" enable-background="new 0 0 960 560" xml:space="preserve">
<g id="Layer_1_1_">
</g>
<g id="Layer_2">
	<g>
		<g enable-background="new    ">
			<path fill="#1B1464" d="M302.449,243.452V140.763h9.111l111.118,57.014v-57.014h20.101v102.689h-9.205L322.55,186.438v57.014
				H302.449z"/>
			<path fill="#1B1464" d="M482.793,243.452v-79.905c0-6.239,3.929-11.597,11.788-16.072c7.857-4.474,17.267-6.712,28.226-6.712
				h40.202c10.957,0,20.366,2.246,28.226,6.739c7.857,4.493,11.788,9.841,11.788,16.045v79.905h-40.014v-45.675h-40.202v45.675
				H482.793z M522.807,186.438h40.202v-22.891c0-3.102-1.989-5.767-5.965-7.996c-3.978-2.228-8.688-3.343-14.137-3.343
				c-5.511,0-10.238,1.115-14.183,3.343c-3.945,2.229-5.918,4.894-5.918,7.996V186.438z"/>
			<path fill="#1B1464" d="M723.249,140.763h40.014v79.905c0,6.169-3.931,11.508-11.788,16.019
				c-7.859,4.511-17.269,6.766-28.226,6.766h-40.202c-10.959,0-20.368-2.237-28.226-6.712c-7.859-4.474-11.788-9.832-11.788-16.072
				v-79.905h40.014v79.905c0,3.067,1.957,5.723,5.871,7.969c3.912,2.246,8.656,3.369,14.229,3.369s10.316-1.123,14.23-3.369
				c3.913-2.247,5.871-4.902,5.871-7.969V140.763z"/>
			<path fill="#1B1464" d="M923.503,220.668c-1.754,15.189-15.092,22.784-40.014,22.784h-40.202
				c-10.959,0-20.368-2.237-28.226-6.712c-7.859-4.474-11.788-9.832-11.788-16.072v-57.121c0-6.132,3.866-11.463,11.601-15.992
				c7.732-4.528,17.203-6.792,28.413-6.792h40.202c25.173,0,38.511,7.595,40.014,22.784h-20.102
				c-1.565-7.559-8.204-11.339-19.912-11.339h-20.102c-5.511,0-10.238,1.115-14.183,3.343c-3.945,2.229-5.918,4.894-5.918,7.996
				v57.121c0,3.067,1.957,5.723,5.871,7.969c3.912,2.246,8.656,3.369,14.229,3.369h20.102c11.771,0,18.409-3.779,19.912-11.338
				H923.503z"/>
		</g>
		<g enable-background="new    ">
			<path d="M415.086,262.446v14.248h-68.393v39.874h59.911v14.142h-67.85c-1.085,0-2.307-0.744-3.663-2.233
				c-1.312-1.488-1.968-4.288-1.968-8.399v-46.998c0-2.977,0.564-5.458,1.696-7.443c1.13-2.126,2.826-3.19,5.088-3.19H415.086z"/>
			<path d="M486.599,265.636c0.95,2.057,1.425,4.537,1.425,7.443v46.998c0,4.184-0.656,6.982-1.968,8.399
				c-1.312,1.489-2.533,2.233-3.664,2.233h-31.074h-31.143c-1.086,0-2.308-0.744-3.664-2.233c-1.312-1.488-1.968-4.288-1.968-8.399
				v-46.998c0-2.977,0.565-5.458,1.696-7.443c1.13-2.126,2.826-3.19,5.089-3.19h29.989h30.532
				C484.11,262.446,485.693,263.51,486.599,265.636z M451.317,276.694h-23.205v39.874h23.205h23.747v-39.874H451.317z"/>
			<path d="M524.797,288.178l19.201-23.924c1.944-2.339,4.862-2.941,8.753-1.808c3.979,1.206,5.971,4.184,5.971,8.932v59.332h-13.57
				v-49.656c-0.588,0.922-1.504,2.233-2.748,3.935s-2.883,3.793-4.919,6.273c-1.991,2.481-4.037,5.016-6.141,7.603
				c-2.103,2.588-4.286,5.229-6.547,7.922c-2.307-2.693-4.535-5.334-6.684-7.922c-2.148-2.587-4.264-5.121-6.344-7.603
				c-4.162-4.961-6.604-8.364-7.327-10.208v49.656h-13.027v-59.332c0-4.748,1.876-7.726,5.632-8.932
				c3.754-1.133,6.784-0.532,9.092,1.808L524.797,288.178z"/>
			<path d="M627.724,265.53c1.13,2.126,1.696,4.644,1.696,7.549v19.564c0,3.474-0.656,6.133-1.968,7.975
				c-1.402,1.772-2.646,2.658-3.731,2.658h-48.58v27.434h-13.027v-20.415v-21.267h54.279v-12.44h-54.279v-14.142h60.521
				C624.896,262.446,626.592,263.475,627.724,265.53z"/>
			<path d="M646.381,316.568h46.952v-54.122h12.959v59.438c0,5.885-1.878,8.825-5.632,8.825h-62.217
				c-1.086,0-2.308-0.744-3.664-2.233c-1.312-1.488-1.968-4.288-1.968-8.399v-57.631h13.569V316.568z"/>
			<path d="M791.035,276.694h-41.184v54.016h-13.57v-54.016h-26.597v-14.248h81.351V276.694z"/>
			<path d="M855.559,262.446v14.142H790.56v-14.142H855.559z M843.143,289.028v14.248h-39.014v12.335h53.737v15.099H790.56v-41.682
				H843.143z"/>
			<path d="M926.868,265.53c1.13,2.126,1.696,4.644,1.696,7.549v19.564c0,2.836-0.385,5.034-1.154,6.593
				c-0.77,1.56-1.516,2.588-2.238,3.083c2.261,1.845,3.393,5.104,3.393,9.783v18.607h-13.027v-27.434h-41.252v27.434h-13.027
				v-20.415v-21.267h54.279v-12.44h-54.279v-14.142h60.521C924.04,262.446,925.736,263.475,926.868,265.53z"/>
		</g>
		<g>
			<g>
				<path d="M33.059,433.567l0.116-18.197l310.501-0.033v-17.134h-77.16v-38.928c0-3.929,0.802-7.173,2.412-9.732
					c1.606-2.648,4.018-3.977,7.233-3.977H382.16v18.231h-96.353v16.035h76.388v40.029c0,4.385-0.804,7.812-2.41,10.278
					c-1.609,2.285-4.018,3.428-7.234,3.428h-86.032"/>
				<path d="M497.993,345.566v18.368h-97.22v51.401h85.164v18.23h-96.448c-1.542,0-3.281-0.958-5.209-2.877
					c-1.866-1.921-2.797-5.528-2.797-10.827v-60.588c0-3.841,0.804-7.035,2.412-9.596c1.606-2.741,4.017-4.111,7.234-4.111
					L497.993,345.566L497.993,345.566L497.993,345.566z"/>
				<path d="M497.222,345.566h19.292v88.001h-19.292V345.566z"/>
				<path d="M613.732,345.566v18.231h-92.397v-18.231H613.732z M596.083,379.834v18.369h-55.458v15.899h76.387v19.465h-95.677
					v-53.733H596.083L596.083,379.834z"/>
				<path d="M698.222,411.91v-66.344h19.291v77.722c0,2.192-0.548,4.296-1.64,6.306c-0.965,1.735-2.025,3.062-3.186,3.975
					c-3.342,1.554-6.556,1.92-9.643,1.097c-3.217-0.639-6.173-2.143-8.873-4.521c-2.507-2.648-5.049-5.299-7.62-7.949
					s-5.291-5.552-8.147-8.703c-2.863-3.154-5.901-6.559-9.116-10.213c-6.495-7.219-12.67-14.072-18.52-20.562
					c-5.917-6.395-9.387-10.781-10.416-13.158v64.013h-18.52v-76.485c0-3.018,0.933-5.711,2.798-8.09
					c1.991-2.283,4.018-3.79,6.076-4.522c0.771,0,1.656,0.049,2.652,0.138c0.997,0.093,2.104,0.229,3.327,0.411
					c2.378,0.459,4.404,1.418,6.076,2.879L698.222,411.91z"/>
				<path d="M838.844,345.566v18.368h-97.22v51.401h85.163v18.23h-96.449c-1.543,0-3.28-0.958-5.209-2.877
					c-1.865-1.921-2.797-5.528-2.797-10.827v-60.588c0-3.841,0.804-7.035,2.412-9.596c1.605-2.741,4.017-4.111,7.232-4.111
					L838.844,345.566L838.844,345.566L838.844,345.566z"/>
				<path d="M930.47,345.566v18.231h-92.396v-18.231H930.47z M912.82,379.834v18.369h-55.457v15.899h76.388v19.465h-95.68v-53.733
					H912.82L912.82,379.834z"/>
			</g>
			<path stroke="#000000" stroke-width="19" stroke-miterlimit="10" d="M48.849,424.332"/>
			<path stroke="#000000" stroke-width="19" stroke-miterlimit="10" d="M348.271,424.332"/>
		</g>
		<g>
			<path fill="#1B1464" d="M237.385,220.523c0,11.816-10.396,21.602-22.906,21.602h-92.503c-12.511,0-23.516-9.785-23.516-21.602
				v-51.71c0-11.818,11.005-20.959,23.516-20.959h92.503c12.511,0,22.906,9.144,22.906,20.959V220.523L237.385,220.523z"/>
			<path fill="#1B1464" d="M176.605,267.179c0,5.744-4.814,12.159-10.895,12.159h-0.63c-6.082,0-10.802-6.415-10.802-12.159v-20.208
				c0-5.746,4.721-9.808,10.802-9.808h0.63c6.081,0,10.895,4.062,10.895,9.808V267.179L176.605,267.179z"/>
			<path fill="#1B1464" d="M252.27,350.688c0,11.814-10.177,21.682-22.688,21.682H101.208c-12.511,0-21.355-9.865-21.355-21.682
				v-74.89c0-11.818,8.844-22.509,21.355-22.509h128.374c12.511,0,22.688,10.691,22.688,22.509V350.688L252.27,350.688z"/>
			<path fill="#1B1464" d="M242.347,206.258c0,2.954-1.834,5.349-4.961,5.349l0,0c-3.127,0-4.962-2.396-4.962-5.349v-21.397
				c0-2.954,1.835-5.35,4.962-5.35l0,0c3.127,0,4.961,2.396,4.961,5.35V206.258z"/>
			<path fill="#1B1464" d="M100.94,208.041c0,1.969-1.637,3.567-3.721,3.567l0,0c-2.086,0-3.721-1.598-3.721-3.567v-24.963
				c0-1.97,1.635-3.566,3.721-3.566l0,0c2.084,0,3.721,1.596,3.721,3.566V208.041z"/>
			<path fill="#1B1464" d="M79.854,324.239c0,1.807-2.848,3.474-4.758,3.474h-0.631c-1.91,0-4.533-1.667-4.533-3.474v-27.343
				c0-1.804,2.624-3.914,4.533-3.914h0.631c1.912,0,4.758,2.11,4.758,3.914V324.239z"/>
			<path fill="#1B1464" d="M69.931,319.643c0,2.374-1.016,4.3-3.102,4.3l0,0c-2.085,0-3.101-1.926-3.101-4.3v-19.338
				c0-2.373,1.016-4.297,3.101-4.297l0,0c2.086,0,3.102,1.924,3.102,4.297V319.643z"/>
			<path fill="#1B1464" d="M63.728,317.7c0,1.478-0.917,2.674-2.481,2.674l0,0c-1.563,0-2.48-1.196-2.48-2.674v-14.269
				c0-1.474,0.917-2.67,2.48-2.67l0,0c1.564,0,2.481,1.196,2.481,2.67V317.7z"/>
			<path fill="#1B1464" d="M259.713,316.81c0,1.968-1.635,3.564-3.722,3.564l0,0c-2.085,0-3.721-1.598-3.721-3.564v-26.745
				c0-1.972,1.636-3.565,3.721-3.565l0,0c2.087,0,3.722,1.595,3.722,3.565V316.81z"/>
			<path fill="#1B1464" d="M264.674,314.135c0,1.477-0.918,2.675-2.481,2.675l0,0c-1.563,0-2.48-1.198-2.48-2.675v-21.398
				c0-1.477,0.917-2.674,2.48-2.674l0,0c1.563,0,2.481,1.197,2.481,2.674V314.135z"/>
			<path fill="#1B1464" d="M270.876,312.646c0,1.312-0.889,2.662-2.28,2.662h-0.629c-1.389,0-3.293-1.35-3.293-2.662v-16.64
				c0-1.315,1.904-3.024,3.293-3.024h0.629c1.391,0,2.28,1.711,2.28,3.024V312.646z"/>
			<ellipse fill="#1B1464" cx="44.387" cy="311.163" rx="16.045" ry="15.157"/>
			<path fill="#1B1464" d="M304.338,303.434c0,9.358-8.029,16.94-17.935,16.94c-9.903,0-17.933-7.582-17.933-16.94
				c0-9.353,8.03-16.936,17.933-16.936C296.31,286.496,304.338,294.081,304.338,303.434z"/>
			<ellipse fill="#1B1464" cx="39.981" cy="296.897" rx="7.237" ry="6.835"/>
			<ellipse fill="#1B1464" cx="26.137" cy="309.675" rx="6.608" ry="6.24"/>
			<ellipse fill="#1B1464" cx="33.059" cy="322.456" rx="6.922" ry="6.539"/>
			<ellipse fill="#1B1464" cx="46.655" cy="323.113" rx="6.674" ry="6.303"/>
			<ellipse fill="#1B1464" cx="289.235" cy="287.093" rx="6.921" ry="6.537"/>
			<ellipse fill="#1B1464" cx="305.32" cy="296.34" rx="6.645" ry="6.273"/>
			<ellipse fill="#1B1464" cx="305.32" cy="310.532" rx="6.645" ry="6.277"/>
			<ellipse fill="#1B1464" cx="292.54" cy="316.661" rx="6.137" ry="5.797"/>
			<ellipse fill="#1B1464" cx="166.341" cy="131.668" rx="6.606" ry="6.24"/>
			<rect x="165.442" y="135.45" fill="#1B1464" width="3.721" height="18.606"/>
			<polygon fill="#1B1464" points="163.507,145.634 165.395,145.634 165.395,145.634 			"/>
			<polygon fill="#1B1464" points="165.396,136.719 167.283,136.719 167.283,136.719 			"/>
			<rect x="164.202" y="134.209" fill="#1B1464" width="1.24" height="14.885"/>
			<ellipse fill="#1B1464" cx="132.045" cy="391.698" rx="27.688" ry="26.152"/>
			<ellipse fill="#1B1464" cx="196.859" cy="391.698" rx="27.688" ry="26.152"/>
			<ellipse fill="#F7F7F9" cx="137.708" cy="186.645" rx="19.507" ry="17.831"/>
			<ellipse fill="#FFFFFF" cx="196.545" cy="186.645" rx="19.824" ry="17.831"/>
			<ellipse fill="#1B1464" cx="139.28" cy="191.103" rx="12.271" ry="11.589"/>
			<ellipse fill="#1B1464" cx="199.062" cy="191.103" rx="12.271" ry="11.589"/>
			<ellipse fill="#FCFCFC" cx="135.19" cy="187.238" rx="8.181" ry="7.726"/>
			<ellipse fill="#FCFCFC" cx="195.286" cy="187.536" rx="8.496" ry="8.024"/>
			<path fill="#FCFCFC" d="M180.424,217.317c0,6.202-5.309,11.198-11.855,11.198c-6.548,0-11.857-4.996-11.857-11.198
				c0-7.443,5.308,0,11.857,0C175.115,217.317,180.424,209.874,180.424,217.317z"/>
		</g>
	</g>
</g>
</svg>
